<?xml version="1.0" encoding="UTF-8"?>
<svg version="1.1" xmlns="http://www.w3.org/2000/svg" width="2000" height="2000">
<path d="M0 0 C660 0 1320 0 2000 0 C2000 660 2000 1320 2000 2000 C1340 2000 680 2000 0 2000 C0 1340 0 680 0 0 Z " fill="#FEFEFE" transform="translate(0,0)"/>
<path d="M0 0 C19.79496838 -0.07047792 39.58991086 -0.12317626 59.38497925 -0.15543652 C68.57879869 -0.1708221 77.7725396 -0.19174998 86.96630859 -0.22631836 C94.99146236 -0.25647806 103.01655919 -0.27563513 111.04176807 -0.28226548 C115.28028743 -0.2861334 119.51864407 -0.29504362 123.7571106 -0.31719017 C172.19704405 -0.56027708 172.19704405 -0.56027708 193 7 C193.9583374 7.34756348 193.9583374 7.34756348 194.93603516 7.70214844 C233.93947401 22.12312012 264.44559528 50.29151718 282 88 C289.0361888 103.71339349 293.00664138 120.8417096 293.2734375 138.06640625 C293.28605621 138.81422363 293.29867493 139.56204102 293.31167603 140.33251953 C293.6534452 165.47060147 290.63622945 186.9640734 280 210 C279.68691895 210.67998047 279.37383789 211.35996094 279.05126953 212.06054688 C272.16813938 226.65030502 262.0973328 239.37522743 251 251 C250.40445313 251.65871094 249.80890625 252.31742188 249.1953125 252.99609375 C230.62978812 272.79666374 200.93920921 288.30607908 174 291 C174 277.47 174 263.94 174 250 C179.61 248.02 185.22 246.04 191 244 C194.15435181 242.43630423 196.9965033 240.97507897 199.9375 239.125 C200.64148926 238.69501709 201.34547852 238.26503418 202.07080078 237.82202148 C207.74568985 234.2946526 213.04139689 230.49112537 218 226 C218.88945312 225.20335937 219.77890625 224.40671875 220.6953125 223.5859375 C232.70219511 212.247962 240.97463476 198.30094167 247 183 C247.27247559 182.31083496 247.54495117 181.62166992 247.82568359 180.91162109 C257.13822842 155.98292407 253.76745507 124.9884385 242.9375 101.1875 C230.65060221 75.95547776 210.49859871 58.77674144 185 48 C184.02289063 47.57847656 183.04578125 47.15695312 182.0390625 46.72265625 C165.44938401 40.12165805 148.17747008 40.53104956 130.625 40.48828125 C128.00227025 40.47140722 125.37954845 40.45325338 122.75683594 40.43388367 C116.60210011 40.39055568 110.44739004 40.36180352 104.29254913 40.33856028 C97.2740973 40.31132557 90.25577878 40.26742707 83.23742294 40.22227156 C68.82502719 40.12990933 54.41257455 40.05800944 40 40 C40.06078164 55.38711046 40.13845335 70.77406897 40.23571491 86.16098881 C40.28049973 93.30693642 40.3199532 100.45283613 40.34643555 107.59887695 C40.36955706 113.83424938 40.40310981 120.06946793 40.44870156 126.30471796 C40.47244526 129.60002431 40.48973895 132.89515065 40.49761391 136.19053841 C40.57566437 165.8686378 45.71506465 193.08905989 66 216 C66.77988281 216.89976562 67.55976563 217.79953125 68.36328125 218.7265625 C71.77007198 222.5961415 74.85517302 225.89137977 79 229 C79.33 179.83 79.66 130.66 80 80 C174.16120427 80 174.16120427 80 195.390625 100.125 C202.09578737 107.5127238 207.70730759 116.56549792 211 126 C211.52980469 127.47339844 211.52980469 127.47339844 212.0703125 128.9765625 C216.86625713 146.27926241 213.11940313 165.8600854 204.8125 181.3125 C197.08311805 193.62597428 187.34834421 202.36856065 174 208 C173.99453156 206.81182175 173.99453156 206.81182175 173.98895264 205.59963989 C173.95092504 198.09725153 173.89390695 190.59535168 173.81609726 183.09327888 C173.77675926 179.23730002 173.74450449 175.38154483 173.72900391 171.52539062 C173.71374613 167.79683096 173.6791424 164.06888682 173.63169098 160.34060287 C173.61697031 158.92546851 173.60896439 157.51024622 173.60811615 156.09503555 C173.59473045 144.94999391 172.35869574 135.75122664 164.49609375 127.3984375 C153.28755258 116.92152434 132.70894982 120.42363166 120 120 C120 176.43 120 232.86 120 291 C92.74414625 287.97157181 67.95610713 274.50824271 48 256 C47.39800781 255.44715332 46.79601562 254.89430664 46.17578125 254.32470703 C18.6531259 228.78112922 1.48914747 192.57667367 -0.21687317 154.90867233 C-0.5691643 144.73005461 -0.47477652 134.54104591 -0.40557575 124.35842586 C-0.3801503 119.96900342 -0.37818836 115.57956346 -0.37347412 111.19007874 C-0.36116282 102.92117874 -0.32850614 94.65249652 -0.28807616 86.38369137 C-0.2429839 76.95164129 -0.22127838 67.51957946 -0.20129442 58.087448 C-0.15975933 38.72484301 -0.08964436 19.36243916 0 0 Z " fill="#0001FE" transform="translate(200,854)"/>
<path d="M0 0 C4.46318338 3.00030282 8.07539676 6.85540943 11.75 10.75 C12.74661975 11.75336887 13.74537401 12.75464749 14.75 13.75 C14.976875 13.21375 15.20375 12.6775 15.4375 12.125 C20.53783254 2.89582684 29.40541539 -2.54577847 39.30517578 -5.66772461 C43.55184662 -6.67913962 47.71396782 -6.73773057 52.0625 -6.6875 C52.98385742 -6.67992676 53.90521484 -6.67235352 54.85449219 -6.66455078 C68.20598104 -6.34262998 78.75379624 -1.72271288 88 7.9375 C98.49051138 20.37147265 99.04748978 34.57093992 98.9453125 50.03515625 C98.94157642 51.70380991 98.93873226 53.37246579 98.93673706 55.04112244 C98.9291474 59.40585523 98.90953968 63.77045222 98.8873291 68.13513184 C98.86676944 72.59983484 98.85771382 77.06456005 98.84765625 81.52929688 C98.8262888 90.26960013 98.7911454 99.00976746 98.75 107.75 C89.18 107.75 79.61 107.75 69.75 107.75 C69.72812622 104.6399353 69.72812622 104.6399353 69.70581055 101.46704102 C69.65530365 94.58978332 69.58868091 87.71274822 69.51428509 80.83570957 C69.46970072 76.66922023 69.43041892 72.50282597 69.40356445 68.33618164 C69.37741159 64.30946707 69.33692621 60.2831208 69.28681374 56.25663567 C69.27022555 54.72623235 69.25866144 53.19576546 69.25238609 51.66528511 C69.35233216 37.99881275 69.35233216 37.99881275 63.5625 25.9375 C55.21460283 19.44469109 47.97435847 18.62554672 37.64648438 19.47509766 C33.49448101 20.07694572 30.68596853 21.85206215 27.75 24.75 C27.25242187 25.23082031 26.75484375 25.71164062 26.2421875 26.20703125 C21.36396728 31.48944686 20.50558054 36.97728897 20.43115234 43.94873047 C20.42110672 44.64211014 20.4110611 45.33548981 20.40071106 46.04988098 C20.37003042 48.32230871 20.35288657 50.59461946 20.3359375 52.8671875 C20.31721364 54.45045976 20.29763932 56.03372216 20.2772522 57.61697388 C20.22605356 61.7695534 20.18636246 65.92216522 20.14910889 70.07489014 C20.10899204 74.31823641 20.05793484 78.56144971 20.0078125 82.8046875 C19.91119852 91.11970727 19.82775958 99.43478251 19.75 107.75 C10.18 107.75 0.61 107.75 -9.25 107.75 C-9.25410889 105.62127441 -9.25821777 103.49254883 -9.26245117 101.29931641 C-9.2797151 94.23442411 -9.32432696 87.1698902 -9.38209057 80.10521889 C-9.41625599 75.82544694 -9.44145416 71.546028 -9.44555664 67.26611328 C-9.44986221 63.12901994 -9.47850966 58.99272149 -9.52343178 54.85587692 C-9.53633517 53.28443421 -9.54074005 51.71289601 -9.53615379 50.14140701 C-9.51310359 39.83689083 -10.11348786 31.01821758 -17.6875 23.25 C-25.43553741 18.71456347 -34.51869921 18.65140342 -43.25 19.75 C-46.57208676 20.86534037 -48.768527 22.30067043 -51.25 24.75 C-51.74757813 25.23082031 -52.24515625 25.71164062 -52.7578125 26.20703125 C-57.63603272 31.48944686 -58.49441946 36.97728897 -58.56884766 43.94873047 C-58.57889328 44.64211014 -58.5889389 45.33548981 -58.59928894 46.04988098 C-58.62996958 48.32230871 -58.64711343 50.59461946 -58.6640625 52.8671875 C-58.68278636 54.45045976 -58.70236068 56.03372216 -58.7227478 57.61697388 C-58.77394644 61.7695534 -58.81363754 65.92216522 -58.85089111 70.07489014 C-58.89100796 74.31823641 -58.94206516 78.56144971 -58.9921875 82.8046875 C-59.08880148 91.11970727 -59.17224042 99.43478251 -59.25 107.75 C-68.82 107.75 -78.39 107.75 -88.25 107.75 C-88.25 70.46 -88.25 33.17 -88.25 -5.25 C-78.68 -5.25 -69.11 -5.25 -59.25 -5.25 C-58.92 -1.29 -58.59 2.67 -58.25 6.75 C-57.0125 5.533125 -55.775 4.31625 -54.5 3.0625 C-39.28254293 -10.15884002 -17.10809304 -9.68692408 0 0 Z " fill="#030303" transform="translate(896.25,961.25)"/>
<path d="M0 0 C10.1720203 7.72794219 16.92759647 21.31320759 19.5703125 33.5 C20.75699489 43.23319291 21.14768911 54.31593556 17.95703125 63.671875 C17.46203125 65.20908203 17.46203125 65.20908203 16.95703125 66.77734375 C14.36947444 74.17401107 11.22294842 79.88277815 5.95703125 85.671875 C5.13912109 86.60966797 5.13912109 86.60966797 4.3046875 87.56640625 C-5.90092642 98.58846928 -21.05125154 104.02127492 -35.8046875 104.89453125 C-51.94093983 105.39485009 -66.25187856 101.34768674 -78.41796875 90.421875 C-88.16171557 81.23575692 -95.21503493 67.80844133 -96.2199707 54.29101562 C-96.60461419 38.83171863 -95.8932095 25.92344516 -87.04296875 12.671875 C-86.5015625 11.86105469 -85.96015625 11.05023437 -85.40234375 10.21484375 C-64.68561781 -18.11832555 -27.14436016 -17.64642917 0 0 Z " fill="#0203FE" transform="translate(1491.04296875,966.328125)"/>
<path d="M0 0 C78.25883943 0 78.25883943 0 93.59375 14.22265625 C102.55327977 24.56393168 104.91048711 36.49682557 104.23535156 49.80664062 C103.14449804 59.97285228 97.38074732 69.24736572 90.1953125 76.26171875 C85.92104508 79.64614758 80.96643797 81.81449664 76 84 C75.19820312 84.36480469 74.39640625 84.72960937 73.5703125 85.10546875 C67.75064464 87.13085468 61.74724545 87.14091406 55.66015625 87.09765625 C54.9791687 87.09664917 54.29818115 87.09564209 53.59655762 87.09460449 C51.08518762 87.08942526 48.57384188 87.07546458 46.0625 87.0625 C40.431875 87.041875 34.80125 87.02125 29 87 C29 105.15 29 123.3 29 142 C19.43 142 9.86 142 0 142 C0 95.14 0 48.28 0 0 Z " fill="#030303" transform="translate(545,927)"/>
<path d="M0 0 C76.83580508 0 76.83580508 0 91.80859375 12.76171875 C95.37159322 16.40093211 97.85370637 20.39984418 100 25 C100.26707764 25.57057129 100.53415527 26.14114258 100.80932617 26.72900391 C103.17386398 32.28528221 103.50548474 37.38155164 103.4375 43.375 C103.42992676 44.30602539 103.42235352 45.23705078 103.41455078 46.19628906 C103.25472728 52.83888033 102.5195615 58.24666108 99 64 C98.55269531 64.78375 98.10539062 65.5675 97.64453125 66.375 C92.31745777 75.05827259 85.40746802 80.20930673 76 84 C75.38543945 84.26546631 74.77087891 84.53093262 74.13769531 84.80444336 C65.20684441 88.11400835 55.74580043 87.3227133 46.375 87.1875 C40.31125 87.125625 34.2475 87.06375 28 87 C28 105.15 28 123.3 28 142 C18.76 142 9.52 142 0 142 C0 95.14 0 48.28 0 0 Z " fill="#0001FE" transform="translate(1196,927)"/>
<path d="M0 0 C1.14847412 -0.00636475 2.29694824 -0.01272949 3.48022461 -0.01928711 C18.59996038 0.20683711 30.96985323 5.59063052 41.9609375 16.0234375 C51.67988703 26.53847846 56.40340892 39.79553761 56.375 54 C56.37886719 55.93359375 56.37886719 55.93359375 56.3828125 57.90625 C56.25 61.5 56.25 61.5 55.25 66.5 C28.19 66.5 1.13 66.5 -26.75 66.5 C-23.83140232 79.24835424 -23.83140232 79.24835424 -15.6640625 88.09765625 C-7.98128827 92.6792442 1.15269288 93.03866214 9.7421875 90.87109375 C13.76136125 89.12736662 15.61578127 86.97909875 18.00390625 83.375 C20.51392547 80.45052491 21.79461264 79.58771887 25.62646484 78.84960938 C29.67551602 78.71268247 33.64476586 78.79996274 37.6875 79 C39.10081052 79.04018125 40.514231 79.07667394 41.92773438 79.109375 C45.37079542 79.19700765 48.80968964 79.33473798 52.25 79.5 C50.52179579 91.00490234 42.67221551 100.41437736 33.5 107.25 C28.38769238 110.66598637 23.11375329 112.73501862 17.25 114.5 C16.17492188 114.85835937 15.09984375 115.21671875 13.9921875 115.5859375 C9.58909029 116.66143306 5.57546228 116.84429102 1.0625 116.8125 C0.22388428 116.80686035 -0.61473145 116.8012207 -1.47875977 116.79541016 C-17.00724774 116.4935379 -30.05654175 111.01204765 -41.2734375 100.19921875 C-55.07943896 85.15198373 -56.37344262 67.72855869 -55.88183594 48.29492188 C-55.20537195 33.95388534 -47.96956355 22.22104825 -37.75 12.5 C-26.31944354 2.5780449 -14.74243584 0.07061411 0 0 Z " fill="#020202" transform="translate(1070.75,954.5)"/>
<path d="M0 0 C1.14847412 -0.00636475 2.29694824 -0.01272949 3.48022461 -0.01928711 C18.59996038 0.20683711 30.96985323 5.59063052 41.9609375 16.0234375 C51.67988703 26.53847846 56.40340892 39.79553761 56.375 54 C56.37886719 55.93359375 56.37886719 55.93359375 56.3828125 57.90625 C56.25 61.5 56.25 61.5 55.25 66.5 C28.19 66.5 1.13 66.5 -26.75 66.5 C-23.83140232 79.24835424 -23.83140232 79.24835424 -15.6640625 88.09765625 C-7.98128827 92.6792442 1.15269288 93.03866214 9.7421875 90.87109375 C13.76136125 89.12736662 15.61578127 86.97909875 18.00390625 83.375 C20.51392547 80.45052491 21.79461264 79.58771887 25.62646484 78.84960938 C29.67551602 78.71268247 33.64476586 78.79996274 37.6875 79 C39.10081052 79.04018125 40.514231 79.07667394 41.92773438 79.109375 C45.37079542 79.19700765 48.80968964 79.33473798 52.25 79.5 C50.52179579 91.00490234 42.67221551 100.41437736 33.5 107.25 C28.38769238 110.66598637 23.11375329 112.73501862 17.25 114.5 C16.17492188 114.85835937 15.09984375 115.21671875 13.9921875 115.5859375 C9.58909029 116.66143306 5.57546228 116.84429102 1.0625 116.8125 C0.22388428 116.80686035 -0.61473145 116.8012207 -1.47875977 116.79541016 C-17.00724774 116.4935379 -30.05654175 111.01204765 -41.2734375 100.19921875 C-55.07943896 85.15198373 -56.37344262 67.72855869 -55.88183594 48.29492188 C-55.20537195 33.95388534 -47.96956355 22.22104825 -37.75 12.5 C-26.31944354 2.5780449 -14.74243584 0.07061411 0 0 Z " fill="#0203FE" transform="translate(1637.75,954.5)"/>
<path d="M0 0 C9.47921655 7.8937842 16.42723575 17.32018347 18.3125 29.75 C13.98943146 29.9483934 9.66879654 30.09319621 5.3425293 30.18945312 C3.87265873 30.22958611 2.40310567 30.28411158 0.93432617 30.35351562 C-11.32971074 30.91833412 -11.32971074 30.91833412 -14.70141602 28.01708984 C-15.95389646 25.96816865 -16.79612266 23.97181602 -17.6875 21.75 C-24.29294298 15.62788212 -30.09817649 15.21685724 -38.7578125 15.4453125 C-44.74056687 15.90918411 -48.24143826 17.20834504 -52.38671875 21.515625 C-58.97636162 29.62104529 -60.19510978 37.3965819 -60.125 47.5625 C-60.14498047 48.57892578 -60.16496094 49.59535156 -60.18554688 50.64257812 C-60.18018497 59.05541362 -58.55501211 67.29264193 -53.4375 74.1875 C-47.04871096 80.14068978 -41.300197 81.3931526 -32.62841797 81.28637695 C-26.21320412 80.98164301 -22.68239109 79.76228957 -17.6875 75.75 C-16.0375 72.78 -14.3875 69.81 -12.6875 66.75 C-2.4575 66.75 7.7725 66.75 18.3125 66.75 C13.79521435 81.80761885 7.08963388 92.76958527 -6.6875 100.75 C-10.28377735 102.38098776 -13.90338319 103.63107096 -17.6875 104.75 C-18.37972656 104.97558594 -19.07195312 105.20117188 -19.78515625 105.43359375 C-34.03818671 109.41565428 -49.65168057 107.06356221 -62.5625 100.375 C-76.77198833 92.23115532 -84.8154952 79.84332849 -89.5 64.25 C-93.13715085 48.13365915 -91.13427103 30.65105094 -83.22265625 16.0859375 C-75.36576428 4.13066677 -65.03869025 -3.52913715 -51.6875 -8.25 C-51.02234375 -8.4975 -50.3571875 -8.745 -49.671875 -9 C-34.1161779 -13.86960953 -12.98754685 -9.62040507 0 0 Z " fill="#0304FE" transform="translate(1797.6875,964.25)"/>
<path d="M0 0 C9.57 0 19.14 0 29 0 C29 9.24 29 18.48 29 28 C37.25 28 45.5 28 54 28 C54 35.59 54 43.18 54 51 C45.75 51 37.5 51 29 51 C29.06298458 58.60651877 29.1384509 66.21271913 29.23571491 73.81887341 C29.28038664 77.35098666 29.31964938 80.88298544 29.34643555 84.4152832 C29.3774908 88.47897322 29.43227834 92.54204542 29.48828125 96.60546875 C29.49467117 97.8702153 29.5010611 99.13496185 29.50764465 100.43803406 C29.52743881 101.61888077 29.54723297 102.79972748 29.56762695 104.01635742 C29.58428154 105.57189583 29.58428154 105.57189583 29.60127258 107.15885925 C30.06079694 110.43320992 31.05685302 112.34588293 33 115 C35.69482042 116.1143762 38.42930524 116.17146526 41.328125 116.31640625 C42.0490332 116.35451416 42.76994141 116.39262207 43.51269531 116.43188477 C44.41600586 116.47498779 45.31931641 116.51809082 46.25 116.5625 C49.1375 116.706875 52.025 116.85125 55 117 C55 124.92 55 132.84 55 141 C50.5826551 141.10892083 46.1680527 141.18777391 41.75 141.25 C40.51507812 141.28351563 39.28015625 141.31703125 38.0078125 141.3515625 C27.45724 141.46262116 18.35742693 140.04568105 10 133.25 C1.84764903 125.25981153 -0.04788786 115.59483595 -0.22705078 104.44873047 C-0.22673804 102.00485993 -0.21567357 99.56097323 -0.1953125 97.1171875 C-0.1924826 95.82177032 -0.18965271 94.52635315 -0.18673706 93.19168091 C-0.17917608 89.78210435 -0.15959446 86.3727038 -0.1373291 82.9631958 C-0.11670627 79.47027974 -0.10770055 75.97733466 -0.09765625 72.484375 C-0.0763397 65.65617131 -0.04122107 58.82811228 0 52 C-4.29 52 -8.58 52 -13 52 C-13 44.08 -13 36.16 -13 28 C-8.71 28 -4.42 28 0 28 C0 18.76 0 9.52 0 0 Z " fill="#0405FE" transform="translate(1841,928)"/>
<path d="M0 0 C9.57 0 19.14 0 29 0 C29.09050543 17.89884056 29.16410085 35.79748399 29.20724869 53.69649029 C29.22782086 62.00843725 29.2558384 70.3202313 29.30175781 78.63208008 C29.34179018 85.88181077 29.3674716 93.13143064 29.37635398 100.3812688 C29.38154118 104.21541087 29.39361941 108.04923608 29.42292023 111.88327599 C29.45034964 115.50223352 29.45839044 119.12074787 29.45243073 122.7397995 C29.45403223 124.6803965 29.47540949 126.62094677 29.49768066 128.56141663 C29.44524269 139.88542644 27.59540812 150.76710147 19.421875 159.125 C12.83500063 164.22451564 4.32713132 167.14833617 -3.984375 167.09765625 C-4.82709961 167.09515869 -5.66982422 167.09266113 -6.53808594 167.09008789 C-7.59801758 167.08098389 -8.65794922 167.07187988 -9.75 167.0625 C-13.1325 167.041875 -16.515 167.02125 -20 167 C-20 158.75 -20 150.5 -20 142 C-12.75 141.75 -12.75 141.75 -10.48730469 141.70214844 C-7.31795084 141.54018576 -5.34284953 141.2626246 -2.80294418 139.3170433 C-0.5585522 136.4326759 -0.49430198 134.94444026 -0.48101807 131.31793213 C-0.46014885 129.58057549 -0.46014885 129.58057549 -0.43885803 127.80812073 C-0.4438884 126.54145065 -0.44891876 125.27478058 -0.45410156 123.96972656 C-0.44536541 122.61938791 -0.43487948 121.26905961 -0.42277527 119.91874695 C-0.39489906 116.25579522 -0.39151092 112.59318099 -0.39249516 108.93013859 C-0.38936741 105.10103344 -0.36375214 101.27208061 -0.34051514 97.4430542 C-0.29994087 90.19354093 -0.27961113 82.94411765 -0.26654124 75.69450831 C-0.25067599 67.44056198 -0.21226241 59.18676889 -0.17194796 50.9329114 C-0.08952942 33.95529637 -0.03842626 16.97778025 0 0 Z " fill="#0405FE" transform="translate(1532,956)"/>
<path d="M0 0 C0 9.9 0 19.8 0 30 C-8.5 30.25 -8.5 30.25 -11.12695312 30.29785156 C-17.94867252 30.59162461 -23.42471646 32.42471646 -28.3125 37.3125 C-31.82507446 42.90660007 -33.36989204 47.33457762 -33.43237305 53.94506836 C-33.4425647 54.59957977 -33.45275635 55.25409119 -33.46325684 55.92843628 C-33.49315808 58.06566175 -33.5026169 60.20243744 -33.51171875 62.33984375 C-33.52858254 63.83201052 -33.54673506 65.32416324 -33.56611633 66.81629944 C-33.61343835 70.72392381 -33.64336226 74.63149115 -33.66955566 78.53930664 C-33.70471738 83.23853785 -33.76167902 87.93755019 -33.81494904 92.63660431 C-33.89325418 99.75770769 -33.94401663 106.87852868 -34 114 C-43.57 114 -53.14 114 -63 114 C-63 76.71 -63 39.42 -63 1 C-53.43 1 -43.86 1 -34 1 C-33.67 5.95 -33.34 10.9 -33 16 C-32.38125 15.154375 -31.7625 14.30875 -31.125 13.4375 C-22.62728211 3.2787551 -12.91703369 0 0 0 Z " fill="#040404" transform="translate(732,955)"/>
<path d="M0 0 C0 9.9 0 19.8 0 30 C-2.76375 30.061875 -5.5275 30.12375 -8.375 30.1875 C-15.68831871 30.51412827 -22.12808196 31.19345106 -28 36 C-32.90114445 41.68641069 -34.2322215 49.37864256 -34.31884766 56.66967773 C-34.33871735 57.95047714 -34.35858704 59.23127655 -34.37905884 60.55088806 C-34.39093158 61.92845487 -34.40259465 63.30602351 -34.4140625 64.68359375 C-34.43279555 66.10849604 -34.45237052 67.53338749 -34.4727478 68.95826721 C-34.52384969 72.68831967 -34.56359199 76.418408 -34.60089111 80.14862061 C-34.64814715 84.6350726 -34.70965 89.12134962 -34.76873779 93.60765839 C-34.85668228 100.40503411 -34.92663745 107.20238086 -35 114 C-44.24 114 -53.48 114 -63 114 C-63 76.71 -63 39.42 -63 1 C-53.76 1 -44.52 1 -35 1 C-34.505 8.92 -34.505 8.92 -34 17 C-33.030625 15.80375 -32.06125 14.6075 -31.0625 13.375 C-22.24700661 3.35336265 -13.14017222 0 0 0 Z " fill="#0102FE" transform="translate(1383,955)"/>
<path d="M0 0 C9.24 0 18.48 0 28 0 C28 37.29 28 74.58 28 113 C18.76 113 9.52 113 0 113 C0 75.71 0 38.42 0 0 Z " fill="#000000" transform="translate(752,956)"/>
<path d="M0 0 C8.88015076 5.00751584 13.12136432 11.71259039 16.15625 21.31640625 C18.41801791 33.12544445 15.88439486 44.38990177 9.5625 54.4375 C4.28900554 60.88135224 -3.37839366 63.7381145 -11.4609375 64.85546875 C-19.8622815 65.25501853 -25.97350879 63.07038345 -32.47265625 57.78125 C-39.86639261 50.37181568 -41.78792381 40.38423735 -41.875 30.25 C-41.70677166 20.31158756 -39.77632458 11.54793792 -32.4375 4.4375 C-22.2707576 -2.83124573 -11.80208297 -5.546979 0 0 Z " fill="#FCFCFE" transform="translate(1465.4375,981.5625)"/>
<path d="M0 0 C4.599375 -0.061875 9.19875 -0.12375 13.9375 -0.1875 C15.36956787 -0.21481201 16.80163574 -0.24212402 18.27709961 -0.27026367 C26.74880162 -0.32521717 34.14763875 -0.18238538 40.875 5.375 C46.58131855 12.42398173 46.90885931 18.06288341 46 27 C44.48103313 32.33271703 41.82856087 36.16584471 37 39 C29.02987893 42.29226398 21.38830295 42.36384179 12.875 42.1875 C8.62625 42.125625 4.3775 42.06375 0 42 C0 28.14 0 14.28 0 0 Z " fill="#F9F9FE" transform="translate(1224,950)"/>
<path d="M0 0 C4.764375 -0.0825 9.52875 -0.165 14.4375 -0.25 C16.66391235 -0.30462402 16.66391235 -0.30462402 18.93530273 -0.36035156 C27.01847042 -0.4278883 34.30416611 -0.22099887 40.57177734 5.4128418 C45.45470392 10.86401743 46.46506083 16.13030034 46.3125 23.21484375 C45.67516237 28.89511537 43.3135062 33.09632782 39.0625 36.875 C33.84279696 40.49683476 30.08159005 41.2475851 23.73046875 41.1953125 C22.48418701 41.19031738 21.23790527 41.18532227 19.95385742 41.18017578 C17.5945105 41.15286377 17.5945105 41.15286377 15.1875 41.125 C7.6696875 41.063125 7.6696875 41.063125 0 41 C0 27.47 0 13.94 0 0 Z " fill="#FDFDFD" transform="translate(574,950)"/>
<path d="M0 0 C4.6892414 3.48558585 9.13215522 8.07486861 11.19140625 13.62890625 C11.19140625 15.93890625 11.19140625 18.24890625 11.19140625 20.62890625 C-6.29859375 20.62890625 -23.78859375 20.62890625 -41.80859375 20.62890625 C-40.73854424 12.06851019 -39.19783902 7.25876653 -32.55078125 1.76171875 C-22.83334907 -4.9410645 -10.47585802 -6.05770373 0 0 Z " fill="#FCFCFE" transform="translate(1652.80859375,981.37109375)"/>
<path d="M0 0 C4.6892414 3.48558585 9.13215522 8.07486861 11.19140625 13.62890625 C11.19140625 15.93890625 11.19140625 18.24890625 11.19140625 20.62890625 C-6.29859375 20.62890625 -23.78859375 20.62890625 -41.80859375 20.62890625 C-40.73854424 12.06851019 -39.19783902 7.25876653 -32.55078125 1.76171875 C-22.83334907 -4.9410645 -10.47585802 -6.05770373 0 0 Z " fill="#FCFCFC" transform="translate(1085.80859375,981.37109375)"/>
<path d="M0 0 C4.7210664 2.82026251 8.2794839 6.07068655 10.7734375 11.05859375 C11.31704196 16.01341469 11.33780824 19.92985227 9.0859375 24.43359375 C4.32417572 29.83883686 0.18206397 32.72331902 -7.0390625 33.43359375 C-11.71810855 33.29207251 -15.44824816 31.79808109 -19.2265625 29.05859375 C-23.54712533 23.6301943 -24.89839368 18.94169428 -24.2265625 12.05859375 C-22.65419965 6.60156973 -20.53523604 4.04372403 -15.9453125 1.00390625 C-11.03898902 -1.69457166 -5.17805256 -2.18931696 0 0 Z " fill="#0506FE" transform="translate(1553.2265625,909.94140625)"/>
<path d="M0 0 C4.45054848 2.54789764 7.64490079 5.30765024 9.7265625 10.078125 C10.45717142 15.61096543 10.4749004 20.36318397 8.2265625 25.515625 C3.86432507 29.98691836 -0.34075046 33.31843515 -6.7734375 33.640625 C-12.88759288 33.26047026 -17.5199582 30.92152632 -21.7109375 26.515625 C-25.01139897 21.36690511 -24.86073174 16.01064797 -24.2734375 10.078125 C-20.05468393 0.58592947 -9.73415748 -3.94718413 0 0 Z " fill="#050505" transform="translate(773.2734375,909.921875)"/>
</svg>
