<?xml version="1.0" encoding="UTF-8"?>
<svg version="1.1" xmlns="http://www.w3.org/2000/svg" width="500" height="500">
<path d="M0 0 C12.53578704 -0.06978686 25.07152716 -0.12295622 37.60746956 -0.15543652 C43.42962678 -0.17103247 49.25165022 -0.19215893 55.07373047 -0.22631836 C60.70179417 -0.25912943 66.32972989 -0.27689856 71.95788193 -0.28463173 C74.095468 -0.29013643 76.23304779 -0.30088475 78.37057877 -0.31719017 C106.34093506 -0.52189259 128.55587695 5.89268293 149 26 C150.15822266 27.13888672 150.15822266 27.13888672 151.33984375 28.30078125 C167.76577996 45.45675907 174.02540102 67.72758477 174 91 C172.93616792 114.380665 162.67541041 134.94044282 146 151 C136.83568206 159.33380163 126.69136125 165.2701904 115.0625 169.4375 C114.34054443 169.6967627 113.61858887 169.95602539 112.87475586 170.22314453 C108.95064829 171.5573136 106.22824633 172 102 172 C102 163.75 102 155.5 102 147 C104.26875 145.989375 106.5375 144.97875 108.875 143.9375 C126.47261627 135.8342611 137.79523459 124.27137597 144.9609375 106.1953125 C150.03614581 90.58809297 148.35946954 74.88246995 142 60 C133.64312967 44.16174099 121.40345902 33.79110345 104.39752197 28.13432312 C95.83250958 25.76263027 87.54487919 25.61083212 78.734375 25.70703125 C77.20453309 25.71264134 75.6746857 25.71690474 74.14483643 25.71989441 C70.15981605 25.73123219 66.17513489 25.76060082 62.19024658 25.79400635 C58.10734645 25.82494901 54.02439037 25.83845092 49.94140625 25.85351562 C41.96078354 25.88548383 33.98043422 25.93654217 26 26 C25.95338368 34.26768447 25.91798349 42.5353128 25.89637566 50.80309677 C25.88599798 54.64335568 25.8719507 58.48352379 25.84912109 62.32373047 C25.82717558 66.03904343 25.81538631 69.75426979 25.81024551 73.46964264 C25.80658828 74.87761038 25.79944838 76.2855741 25.78853989 77.69350433 C25.65171963 96.10743425 28.40072421 112.78309567 41 127 C42.98 128.65 44.96 130.3 47 132 C47 103.95 47 75.9 47 47 C50.48645489 46.30270902 52.92833458 45.87723931 56.34033203 45.91479492 C57.1653421 45.92198044 57.99035217 45.92916595 58.84036255 45.93656921 C59.72062103 45.95105606 60.60087952 45.96554291 61.5078125 45.98046875 C62.42907928 45.99459305 63.35034607 46.00871735 64.29953003 46.02326965 C66.24792096 46.05632516 68.19625848 46.09267066 70.14453125 46.13208008 C73.09378282 46.18691954 76.04257937 46.21576952 78.9921875 46.24414062 C93.80478996 46.47968281 104.8179078 48.27797088 115.87109375 58.77734375 C121.80727318 65.01990664 126.4543574 73.26971836 127 82 C127.061875 82.78632813 127.12375 83.57265625 127.1875 84.3828125 C127.69771642 95.57568522 124.10298257 104.70071765 117.29296875 113.50390625 C113.7413167 117.37018505 109.76357156 120.7324384 105 123 C103.515 122.505 103.515 122.505 102 122 C101.9906543 120.89076172 101.98130859 119.78152344 101.97167969 118.63867188 C101.93157898 114.49341794 101.86576602 110.3488906 101.79248047 106.20410156 C101.76438666 104.4157856 101.74311486 102.62734814 101.72900391 100.83886719 C101.70741249 98.25653398 101.66068291 95.67564381 101.609375 93.09375 C101.60814636 92.30383667 101.60691772 91.51392334 101.60565186 90.70007324 C101.4654577 85.29536656 100.55294008 80.2532843 97 76 C89.28021569 71.64062607 89.28021569 71.64062607 72 72 C72 104.67 72 137.34 72 171 C61.63847954 173.07230409 49.6471223 166.55077283 41 161 C20.06181263 146.70799856 5.81347098 127.04636596 1 102 C0.11790568 95.800098 -0.14038763 89.69679147 -0.11352539 83.44116211 C-0.11367142 82.53276581 -0.11381744 81.62436951 -0.1139679 80.68844604 C-0.11327722 77.7180534 -0.1055248 74.74772529 -0.09765625 71.77734375 C-0.09578906 69.70512425 -0.09436658 67.63290431 -0.09336853 65.5606842 C-0.08956703 60.13069419 -0.07975715 54.70073131 -0.06866455 49.27075195 C-0.05839934 43.72021858 -0.05386 38.16968078 -0.04882812 32.61914062 C-0.03813259 21.74608189 -0.02108485 10.87304321 0 0 Z " fill="#FCFCFC" transform="translate(163,164)"/>
<path d="M0 0 C0.90070724 0.02009628 1.80141449 0.04019257 2.72941589 0.06089783 C3.69825211 0.08793289 4.66708832 0.11496796 5.6652832 0.14282227 C7.15714897 0.17823875 7.15714897 0.17823875 8.67915344 0.21437073 C11.85826951 0.29099229 15.03714108 0.37502339 18.21606445 0.45922852 C20.37034933 0.51245069 22.52464617 0.56519108 24.67895508 0.61743164 C29.96230975 0.7466054 35.24548256 0.88186439 40.52856445 1.02172852 C40.52856445 1.35172852 40.52856445 1.68172852 40.52856445 2.02172852 C25.01856445 2.02172852 9.50856445 2.02172852 -6.47143555 2.02172852 C-6.47143555 30.73172852 -6.47143555 59.44172852 -6.47143555 89.02172852 C-10.47143555 87.02172852 -10.47143555 87.02172852 -11.47143555 85.02172852 C-10.15143555 85.35172852 -8.83143555 85.68172852 -7.47143555 86.02172852 C-7.47143555 57.97172852 -7.47143555 29.92172852 -7.47143555 1.02172852 C-4.59830146 0.06401715 -2.96698348 -0.0747979 0 0 Z " fill="#E4E4E4" transform="translate(217.471435546875,209.978271484375)"/>
</svg>
