<?xml version="1.0" encoding="UTF-8"?>
<svg version="1.1" xmlns="http://www.w3.org/2000/svg" width="500" height="500">
<path d="M0 0 C11.83205353 -0.06991834 23.66405683 -0.12302175 35.4962759 -0.15543652 C40.99213973 -0.17100433 46.48786085 -0.19207769 51.98364258 -0.22631836 C57.3004958 -0.25923193 62.61721289 -0.27691956 67.93416023 -0.28463173 C69.94925131 -0.29011841 71.96433607 -0.30082998 73.97936821 -0.31719017 C101.14209728 -0.5286891 123.94901898 4.63559523 145 23 C145.61359375 23.52980469 146.2271875 24.05960938 146.859375 24.60546875 C162.17654516 38.83357406 171.31077541 60.17871036 172.37890625 80.8515625 C173.1659104 107.44346469 164.63157524 129.96415189 146.46484375 149.51025391 C135.34947432 160.81458462 119.36187325 168.45674547 104 172 C103.01 172 102.02 172 101 172 C101 163.75 101 155.5 101 147 C102.753125 146.319375 104.50625 145.63875 106.3125 144.9375 C112.70555488 142.26870115 118.34377076 138.98363999 124 135 C124.63550781 134.56300781 125.27101563 134.12601563 125.92578125 133.67578125 C136.93453441 125.2483909 144.51203307 110.1026042 146.71484375 96.671875 C148.40866346 80.80101632 145.69126265 63.46301267 135.81494141 50.43701172 C125.3521214 37.53694228 112.3926143 29.29289639 96 26 C93.49897872 25.81153322 90.99039423 25.70764501 88.48242188 25.68115234 C87.77899658 25.67110672 87.07557129 25.6610611 86.35083008 25.65071106 C84.0568107 25.62015149 81.76290648 25.60292091 79.46875 25.5859375 C77.86591621 25.56720384 76.26309206 25.54762883 74.66027832 25.5272522 C70.46498319 25.47615688 66.26965617 25.436411 62.07421875 25.39910889 C57.7837754 25.35892667 53.49346213 25.30789955 49.203125 25.2578125 C40.80217255 25.1613212 32.40115515 25.07683167 24 25 C24.06157847 33.90255494 24.13894297 42.80479941 24.23571491 51.70704174 C24.28018426 55.84202766 24.31948982 59.97692036 24.34643555 64.11206055 C24.37270517 68.11285587 24.4132684 72.11328774 24.46318626 76.11385536 C24.47969688 77.62978865 24.49130843 79.14578457 24.49761391 80.66179466 C24.59337214 101.59475548 30.0092835 118.0092835 45 133 C45.33 104.62 45.66 76.24 46 47 C53.38375 46.938125 60.7675 46.87625 68.375 46.8125 C71.8407251 46.77153198 71.8407251 46.77153198 75.37646484 46.72973633 C77.23795044 46.72096245 79.09944185 46.71332065 80.9609375 46.70703125 C81.90300049 46.69168335 82.84506348 46.67633545 83.81567383 46.66052246 C95.1913387 46.65610072 105.48320417 50.10445514 114.0078125 57.81640625 C122.13297507 66.52193757 125.45079167 76.17192797 126 88 C125.53040341 99.31576302 120.3067861 109.74710685 112.02734375 117.375 C105.00961538 123 105.00961538 123 101 123 C100.98541748 121.81970215 100.97083496 120.6394043 100.95581055 119.42333984 C100.89767303 115.02850625 100.82044119 110.63417674 100.73754883 106.23974609 C100.70437207 104.34074101 100.67631769 102.44163904 100.65356445 100.54248047 C100.61988482 97.80654765 100.5675628 95.07149689 100.51171875 92.3359375 C100.50532883 91.49195404 100.4989389 90.64797058 100.49235535 89.77841187 C100.3693955 84.80652988 99.76984318 81.29499704 97 77 C88.67758972 70.44831531 82.40573844 71.71285865 71 71 C71 104.33 71 137.66 71 172 C48.63251911 167.93318529 30.08640673 157.06429567 16 139 C2.58252294 119.26227661 -0.46645506 100.13685668 -0.29296875 76.85546875 C-0.28736353 74.63202706 -0.28309781 72.40858163 -0.28010559 70.18513489 C-0.26872974 64.37370313 -0.23932601 58.56250143 -0.20599365 52.75115967 C-0.17513517 46.80484121 -0.16156673 40.85848507 -0.14648438 34.91210938 C-0.11444858 23.2746393 -0.06334138 11.63733889 0 0 Z " fill="#0909F9" transform="translate(164,164)"/>
<path d="M0 0 C0.87454834 0.00523682 1.74909668 0.01047363 2.65014648 0.01586914 C3.59438477 0.0190918 4.53862305 0.02231445 5.51147461 0.02563477 C6.50469727 0.03401367 7.49791992 0.04239258 8.52124023 0.05102539 C9.51833008 0.05553711 10.51541992 0.06004883 11.54272461 0.06469727 C14.01478872 0.07652532 16.48673541 0.0930069 18.95874023 0.11352539 C18.95874023 1.10352539 18.95874023 2.09352539 18.95874023 3.11352539 C12.35874023 2.78352539 5.75874023 2.45352539 -1.04125977 2.11352539 C-1.04125977 35.44352539 -1.04125977 68.77352539 -1.04125977 103.11352539 C-12.04125977 101.11352539 -12.04125977 101.11352539 -15.04125977 99.11352539 C-6.66625977 99.11352539 -6.66625977 99.11352539 -3.04125977 100.11352539 C-3.04348038 98.87546646 -3.04570099 97.63740753 -3.04798889 96.36183167 C-3.0682183 84.72167317 -3.08323093 73.08151822 -3.09307194 61.44134617 C-3.09830128 55.45633273 -3.10539984 49.47133343 -3.11669922 43.48632812 C-3.12752629 37.7156911 -3.13353622 31.94506771 -3.13613701 26.17442131 C-3.13799158 23.96749596 -3.14161281 21.76057139 -3.14698982 19.55365181 C-3.15419787 16.47406498 -3.15525081 13.39453525 -3.15478516 10.31494141 C-3.15838043 9.39281357 -3.16197571 8.47068573 -3.16567993 7.52061462 C-3.15357841 0.17538739 -3.15357841 0.17538739 0 0 Z " fill="#5555E1" transform="translate(236.041259765625,232.886474609375)"/>
<path d="M0 0 C0.33 0 0.66 0 1 0 C1.00586624 1.07946899 1.01173248 2.15893799 1.01777649 3.27111816 C1.07531221 13.50871192 1.14823104 23.74609952 1.23571491 33.98348236 C1.28019635 39.24499441 1.31949973 44.50643296 1.34643555 49.76806641 C1.37269243 54.85812128 1.41324798 59.94788987 1.46318626 65.0377655 C1.47970517 66.96710107 1.49131165 68.89648597 1.49761391 70.82588196 C1.53577524 81.44754683 2.0665114 91.37865175 4.45939636 101.75109863 C4.98641537 104.91835954 4.87171095 106.9413524 4 110 C-0.46600041 103.30099939 -0.29164333 94.78523896 -0.22705078 86.96044922 C-0.22734283 86.01289261 -0.22763489 85.065336 -0.22793579 84.08906555 C-0.22655571 80.99417579 -0.21105739 77.89953458 -0.1953125 74.8046875 C-0.19157766 72.64421724 -0.18873292 70.48374527 -0.18673706 68.32327271 C-0.17913766 62.66474651 -0.1595212 57.00632463 -0.1373291 51.34783936 C-0.11679076 45.56263642 -0.10771832 39.77741646 -0.09765625 33.9921875 C-0.07627158 22.66141276 -0.04218064 11.33071509 0 0 Z " fill="#0D0DC8" transform="translate(164,167)"/>
<path d="M0 0 C0.66 0 1.32 0 2 0 C2 12.54 2 25.08 2 38 C3.32 38 4.64 38 6 38 C6 37.34 6 36.68 6 36 C6.99 36 7.98 36 9 36 C9 36.66 9 37.32 9 38 C2.25 42 2.25 42 0 42 C0 28.14 0 14.28 0 0 Z " fill="#5252E4" transform="translate(265,245)"/>
<path d="M0 0 C1.4540625 0.0309375 1.4540625 0.0309375 2.9375 0.0625 C-0.12047585 7.81288706 -10.64431974 14.58085408 -18.0625 18.0625 C-19.0525 18.0625 -20.0425 18.0625 -21.0625 18.0625 C-21.0625 17.4025 -21.0625 16.7425 -21.0625 16.0625 C-20.0725 16.0625 -19.0825 16.0625 -18.0625 16.0625 C-18.0625 15.4025 -18.0625 14.7425 -18.0625 14.0625 C-16.7425 14.0625 -15.4225 14.0625 -14.0625 14.0625 C-14.0625 12.4125 -14.0625 10.7625 -14.0625 9.0625 C-13.4025 8.7325 -12.7425 8.4025 -12.0625 8.0625 C-12.0625 8.7225 -12.0625 9.3825 -12.0625 10.0625 C-10.7425 10.0625 -9.4225 10.0625 -8.0625 10.0625 C-8.3925 9.0725 -8.7225 8.0825 -9.0625 7.0625 C-7.7425 7.0625 -6.4225 7.0625 -5.0625 7.0625 C-4.918125 6.093125 -4.77375 5.12375 -4.625 4.125 C-3.88189799 0.07922241 -3.88189799 0.07922241 0 0 Z " fill="#3737E4" transform="translate(310.0625,308.9375)"/>
<path d="M0 0 C4.20825044 6.31237565 4.56609962 15.36663802 3.4375 22.75 C2.19833142 28.2729169 -0.21613996 33.10168139 -3 38 C-3.33 38 -3.66 38 -4 38 C-4 36.35 -4 34.7 -4 33 C-2.515 32.505 -2.515 32.505 -1 32 C-1 29.36 -1 26.72 -1 24 C-0.34 24 0.32 24 1 24 C0.67 16.08 0.34 8.16 0 0 Z " fill="#3A39DB" transform="translate(286,235)"/>
<path d="M0 0 C1.32 0 2.64 0 4 0 C4 0.66 4 1.32 4 2 C3.34 2 2.68 2 2 2 C2 8.6 2 15.2 2 22 C4.97 22 7.94 22 11 22 C7 24 7 24 0 25 C0 16.75 0 8.5 0 0 Z " fill="#5757E3" transform="translate(265,311)"/>
<path d="M0 0 C0.33 0 0.66 0 1 0 C1.08564209 0.60473145 1.17128418 1.20946289 1.25952148 1.83251953 C1.65143032 4.59678671 2.04445583 7.36089403 2.4375 10.125 C2.57220703 11.07632812 2.70691406 12.02765625 2.84570312 13.0078125 C2.97783203 13.9359375 3.10996094 14.8640625 3.24609375 15.8203125 C3.37226074 16.71911133 3.49842773 17.61791016 3.62841797 18.54394531 C3.93305944 20.55754136 4.31693952 22.5589998 4.72265625 24.5546875 C4.81417969 25.36164063 4.90570313 26.16859375 5 27 C4.34 27.66 3.68 28.32 3 29 C0.15386812 19.10630347 -0.35396698 10.21260287 0 0 Z " fill="#3D3ADE" transform="translate(164,248)"/>
<path d="M0 0 C0.4125 0.474375 0.825 0.94875 1.25 1.4375 C3.182185 3.16266518 4.48192275 3.56584875 7 4 C6.67 5.32 6.34 6.64 6 8 C7.32 8 8.64 8 10 8 C10 9.32 10 10.64 10 12 C10.99 12.33 11.98 12.66 13 13 C12.34 13.66 11.68 14.32 11 15 C6.66666667 10.66666667 2.33333333 6.33333333 -2 2 C-1.34 2 -0.68 2 0 2 C0 1.34 0 0.68 0 0 Z " fill="#3E3DEA" transform="translate(287,197)"/>
<path d="M0 0 C0.75 1.6875 0.75 1.6875 1 4 C-1.48699388 8.01745166 -3.66256337 9.40199703 -8 11 C-8.99 12.485 -8.99 12.485 -10 14 C-11.32 13.67 -12.64 13.34 -14 13 C-13.24074219 12.39671875 -12.48148437 11.7934375 -11.69921875 11.171875 C-10.70535156 10.37265625 -9.71148437 9.5734375 -8.6875 8.75 C-7.70136719 7.96109375 -6.71523438 7.1721875 -5.69921875 6.359375 C-3.3981453 4.34801702 -1.69394604 2.5206842 0 0 Z " fill="#4B4BE6" transform="translate(298,289)"/>
<path d="M0 0 C7.59570439 -0.58179863 13.14115041 0.73110147 20 4 C18.33984375 5.11328125 18.33984375 5.11328125 16 6 C13.37890625 5.35546875 13.37890625 5.35546875 10.5625 4.1875 C7.03325992 2.74929785 3.76373766 1.63525881 0 1 C0 0.67 0 0.34 0 0 Z " fill="#4F4CE5" transform="translate(260,189)"/>
<path d="M0 0 C0.99 0 1.98 0 3 0 C3 7.26 3 14.52 3 22 C2.67 22 2.34 22 2 22 C1.34 14.74 0.68 7.48 0 0 Z " fill="#4B4AE5" transform="translate(310,234)"/>
<path d="M0 0 C0.66 0 1.32 0 2 0 C2.72767003 1.23884319 3.43154815 2.49168341 4.125 3.75 C4.51945312 4.44609375 4.91390625 5.1421875 5.3203125 5.859375 C6 8 6 8 5.1171875 10.265625 C4.74851562 10.83796875 4.37984375 11.4103125 4 12 C4 10.68 4 9.36 4 8 C2.68 7.67 1.36 7.34 0 7 C-1.125 2.25 -1.125 2.25 0 0 Z " fill="#2423E2" transform="translate(323,207)"/>
<path d="M0 0 C2.66666667 2.66666667 5.33333333 5.33333333 8 8 C7.67 8.66 7.34 9.32 7 10 C6.67 10.99 6.34 11.98 6 13 C5.34 13 4.68 13 4 13 C3.67 12.01 3.34 11.02 3 10 C3.66 10 4.32 10 5 10 C4.02149805 8.97895449 3.02019573 7.9793879 2 7 C1.67 7 1.34 7 1 7 C0.67 4.69 0.34 2.38 0 0 Z " fill="#3B3BE7" transform="translate(312,191)"/>
<path d="M0 0 C3.94139078 1.66751148 6.7892812 4.22710649 10 7 C9.67 7.66 9.34 8.32 9 9 C7.68 9 6.36 9 5 9 C3.375 6.75 3.375 6.75 2 4 C1.608125 3.236875 1.21625 2.47375 0.8125 1.6875 C0.544375 1.130625 0.27625 0.57375 0 0 Z " fill="#413EE3" transform="translate(300,181)"/>
<path d="M0 0 C0.66 0.66 1.32 1.32 2 2 C2.66 1.67 3.32 1.34 4 1 C4.66 1.66 5.32 2.32 6 3 C4.35830472 5.02054804 2.69088222 7.02043058 1 9 C0.67 9 0.34 9 0 9 C-0.87890625 2.84765625 -0.87890625 2.84765625 -1 1 C-0.67 0.67 -0.34 0.34 0 0 Z " fill="#2323E8" transform="translate(313,300)"/>
<path d="M0 0 C0.99 0 1.98 0 3 0 C3 0.99 3 1.98 3 3 C3.61875 3.268125 4.2375 3.53625 4.875 3.8125 C7 5 7 5 9 8 C8.67 8.99 8.34 9.98 8 11 C6.66072279 9.54712339 5.32873153 8.08752741 4 6.625 C3.2575 5.81289063 2.515 5.00078125 1.75 4.1640625 C0 2 0 2 0 0 Z " fill="#5C59E4" transform="translate(180,301)"/>
<path d="M0 0 C2.97 0 5.94 0 9 0 C9.625 2.875 9.625 2.875 10 6 C9.34 6.66 8.68 7.32 8 8 C7.4225 7.236875 6.845 6.47375 6.25 5.6875 C4.28296907 3.33799083 2.51523256 1.70676495 0 0 Z " fill="#4343E6" transform="translate(255,236)"/>
<path d="M0 0 C0.33 0 0.66 0 1 0 C0.67 3.3 0.34 6.6 0 10 C-0.66 10 -1.32 10 -2 10 C-2.33 11.32 -2.66 12.64 -3 14 C-3.66 14 -4.32 14 -5 14 C-3.46527032 9.27775484 -1.76054874 4.64144669 0 0 Z " fill="#5051E1" transform="translate(309,268)"/>
<path d="M0 0 C0.66 0 1.32 0 2 0 C2 0.66 2 1.32 2 2 C2.66 2.33 3.32 2.66 4 3 C6 6 6 6 6 9 C6.66 9 7.32 9 8 9 C7.34 10.32 6.68 11.64 6 13 C4.02 8.71 2.04 4.42 0 0 Z " fill="#5A5BE4" transform="translate(301,215)"/>
<path d="M0 0 C4.10958767 1.45044271 7.43258745 3.51110752 11 6 C9.1875 6.625 9.1875 6.625 7 7 C6.01 6.34 5.02 5.68 4 5 C4 4.34 4 3.68 4 3 C2.68 3 1.36 3 0 3 C0 2.01 0 1.02 0 0 Z " fill="#4C4BE3" transform="translate(289,174)"/>
<path d="M0 0 C1.98 0 3.96 0 6 0 C4.63016497 3.16115776 4.0109362 3.9927092 1 6 C1 5.01 1 4.02 1 3 C0.34 3 -0.32 3 -1 3 C-0.67 2.01 -0.34 1.02 0 0 Z " fill="#4444EC" transform="translate(307,309)"/>
<path d="M0 0 C4.38889325 0.66498383 7.9811485 2.18757677 12 4 C10.265625 5.14453125 10.265625 5.14453125 8 6 C5.859375 5.13671875 5.859375 5.13671875 3.75 3.6875 C3.04359375 3.21699219 2.3371875 2.74648438 1.609375 2.26171875 C1.07828125 1.84535156 0.5471875 1.42898438 0 1 C0 0.67 0 0.34 0 0 Z " fill="#5453E2" transform="translate(200,321)"/>
<path d="M0 0 C1.46067199 0.45082469 2.91848032 0.91093537 4.375 1.375 C5.18710937 1.63023437 5.99921875 1.88546875 6.8359375 2.1484375 C9 3 9 3 11 5 C9 6 9 6 5.875 5.0625 C4.92625 4.711875 3.9775 4.36125 3 4 C3 3.34 3 2.68 3 2 C1.68 1.67 0.36 1.34 -1 1 C-0.67 0.67 -0.34 0.34 0 0 Z " fill="#5755E3" transform="translate(278,169)"/>
<path d="M0 0 C2.95183101 2.95183101 3.08663988 5.95511947 4 10 C2.68 9.67 1.36 9.34 0 9 C0 6.03 0 3.06 0 0 Z " fill="#3635DE" transform="translate(187,260)"/>
<path d="M0 0 C2.75950066 2.49245221 4.62030099 4.20300991 5 8 C4.67 8.66 4.34 9.32 4 10 C3.01 10 2.02 10 1 10 C1.020625 9.0925 1.04125 8.185 1.0625 7.25 C1.0110245 4.57327412 0.7784983 2.53011948 0 0 Z " fill="#413EE6" transform="translate(281,227)"/>
<path d="M0 0 C2.31 0.66 4.62 1.32 7 2 C6.67 2.66 6.34 3.32 6 4 C4.741875 3.87625 3.48375 3.7525 2.1875 3.625 C1.12595703 3.52058594 1.12595703 3.52058594 0.04296875 3.4140625 C-2 3 -2 3 -5 1 C-3.35 1 -1.7 1 0 1 C0 0.67 0 0.34 0 0 Z " fill="#4D4FE4" transform="translate(226,331)"/>
<path d="M0 0 C0.66 0.33 1.32 0.66 2 1 C0.90931332 4.77545388 0.0916909 7.47043472 -3 10 C-3 8.35 -3 6.7 -3 5 C-2.01 4.67 -1.02 4.34 0 4 C0 2.68 0 1.36 0 0 Z " fill="#4141E2" transform="translate(285,263)"/>
<path d="M0 0 C1.32 0 2.64 0 4 0 C4 1.32 4 2.64 4 4 C4.99 4.33 5.98 4.66 7 5 C6.34 5.66 5.68 6.32 5 7 C3.29115995 5.37660195 1.62553283 3.70680947 0 2 C0 1.34 0 0.68 0 0 Z " fill="#4847E3" transform="translate(293,205)"/>
<path d="M0 0 C2.66735273 2.48952921 4.55746343 4.63408134 6 8 C5.01 8.495 5.01 8.495 4 9 C4 8.34 4 7.68 4 7 C3.01 7 2.02 7 1 7 C0.67 4.69 0.34 2.38 0 0 Z " fill="#4242E1" transform="translate(197,284)"/>
<path d="M0 0 C0.66 0.33 1.32 0.66 2 1 C1.67 1.99 1.34 2.98 1 4 C-1.64 4.33 -4.28 4.66 -7 5 C-4.702779 3.25728062 -2.40133271 1.60088848 0 0 Z " fill="#5658E4" transform="translate(282,303)"/>
<path d="M0 0 C0.99 0 1.98 0 3 0 C3 0.66 3 1.32 3 2 C-1.38461538 5 -1.38461538 5 -4 5 C-4 4.01 -4 3.02 -4 2 C-2.68 2 -1.36 2 0 2 C0 1.34 0 0.68 0 0 Z " fill="#4240E2" transform="translate(271,281)"/>
</svg>
